<svg width="100" height="100" viewBox="0 0 100 100" fill="none" xmlns="http://www.w3.org/2000/svg">
  <rect width="100" height="100" rx="20" fill="url(#gradient)"/>
  <path d="M30 40L50 20L70 40L60 50L40 50L30 40Z" fill="white" fill-opacity="0.9"/>
  <path d="M40 50L30 60L50 80L70 60L60 50L40 50Z" fill="white" fill-opacity="0.7"/>
  <path d="M50 20L70 40L80 30L60 10L50 20Z" fill="white" fill-opacity="0.8"/>
  <path d="M20 30L30 40L40 30L30 20L20 30Z" fill="white" fill-opacity="0.8"/>
  <path d="M60 50L70 40L80 50L70 60L60 50Z" fill="white" fill-opacity="0.6"/>
  <path d="M30 60L40 50L50 60L40 70L30 60Z" fill="white" fill-opacity="0.6"/>
  <defs>
    <linearGradient id="gradient" x1="0" y1="0" x2="100" y2="100" gradientUnits="userSpaceOnUse">
      <stop stop-color="#FF6B6B"/>
      <stop offset="0.5" stop-color="#4A90E2"/>
      <stop offset="1" stop-color="#50E3C2"/>
    </linearGradient>
  </defs>
</svg>